<?xml version="1.0" encoding="utf-8" ?>
<svg baseProfile="full" height="460.62991" version="1.1" width="1240.15745" xmlns="http://www.w3.org/2000/svg" xmlns:ev="http://www.w3.org/2001/xml-events" xmlns:xlink="http://www.w3.org/1999/xlink"><defs /><rect fill="white" height="460.62991" opacity="1" stroke-width="0" width="1240.15745" x="0.0" y="0.0" /><g><g id="vlines" stroke="lightgray"><line x1="0.0" x2="0.0" y1="70.86614" y2="425.19684" /><text fill="black" font-family="Verdana" font-size="12" stroke="black" stroke-width="0" x="3.543307" y="67.322833">T 27</text><line x1="35.43307" x2="35.43307" y1="70.86614" y2="425.19684" /><text fill="black" font-family="Verdana" font-size="12" stroke="black" stroke-width="0" x="38.976377" y="67.322833">W 28</text><line x1="70.86614" x2="70.86614" y1="70.86614" y2="425.19684" /><text fill="black" font-family="Verdana" font-size="12" stroke="black" stroke-width="0" x="74.409447" y="67.322833">T 01</text><text fill="#800000" font-family="Verdana" font-size="18" font-weight="bold" stroke="#800000" stroke-width="0" x="74.409447" y="35.43307">March</text><line x1="106.29921" x2="106.29921" y1="70.86614" y2="425.19684" /><text fill="black" font-family="Verdana" font-size="12" stroke="black" stroke-width="0" x="109.842517" y="67.322833">F 02</text><line x1="141.73228" x2="141.73228" y1="70.86614" y2="425.19684" /><rect fill="gray" height="354.3307" opacity="0.7" stroke="lightgray" stroke-width="1" width="35.43307" x="141.73228" y="70.86614" /><text fill="black" font-family="Verdana" font-size="12" stroke="black" stroke-width="0" x="145.275587" y="67.322833">S 03</text><line x1="177.16535" x2="177.16535" y1="70.86614" y2="425.19684" /><rect fill="gray" height="354.3307" opacity="0.7" stroke="lightgray" stroke-width="1" width="35.43307" x="177.16535" y="70.86614" /><text fill="black" font-family="Verdana" font-size="12" stroke="black" stroke-width="0" x="180.708657" y="67.322833">S 04</text><line x1="212.59842" x2="212.59842" y1="70.86614" y2="425.19684" /><text fill="black" font-family="Verdana" font-size="12" stroke="black" stroke-width="0" x="216.141727" y="67.322833">M 05</text><text fill="black" font-family="Verdana" font-size="16" font-weight="bold" stroke="black" stroke-width="0" x="216.141727" y="53.149605">10</text><line x1="248.03149000000002" x2="248.03149000000002" y1="70.86614" y2="425.19684" /><text fill="black" font-family="Verdana" font-size="12" stroke="black" stroke-width="0" x="251.574797" y="67.322833">T 06</text><line x1="283.46456" x2="283.46456" y1="70.86614" y2="425.19684" /><text fill="black" font-family="Verdana" font-size="12" stroke="black" stroke-width="0" x="287.007867" y="67.322833">W 07</text><line x1="318.89763" x2="318.89763" y1="70.86614" y2="425.19684" /><text fill="black" font-family="Verdana" font-size="12" stroke="black" stroke-width="0" x="322.440937" y="67.322833">T 08</text><line x1="354.3307" x2="354.3307" y1="70.86614" y2="425.19684" /><text fill="black" font-family="Verdana" font-size="12" stroke="black" stroke-width="0" x="357.874007" y="67.322833">F 09</text><line x1="389.76377" x2="389.76377" y1="70.86614" y2="425.19684" /><rect fill="gray" height="354.3307" opacity="0.7" stroke="lightgray" stroke-width="1" width="35.43307" x="389.76377" y="70.86614" /><text fill="black" font-family="Verdana" font-size="12" stroke="black" stroke-width="0" x="393.307077" y="67.322833">S 10</text><line x1="425.19684" x2="425.19684" y1="70.86614" y2="425.19684" /><rect fill="gray" height="354.3307" opacity="0.7" stroke="lightgray" stroke-width="1" width="35.43307" x="425.19684" y="70.86614" /><text fill="black" font-family="Verdana" font-size="12" stroke="black" stroke-width="0" x="428.740147" y="67.322833">S 11</text><line x1="460.62991" x2="460.62991" y1="70.86614" y2="425.19684" /><text fill="black" font-family="Verdana" font-size="12" stroke="black" stroke-width="0" x="464.173217" y="67.322833">M 12</text><text fill="black" font-family="Verdana" font-size="16" font-weight="bold" stroke="black" stroke-width="0" x="464.173217" y="53.149605">11</text><line x1="496.06298000000004" x2="496.06298000000004" y1="70.86614" y2="425.19684" /><text fill="black" font-family="Verdana" font-size="12" stroke="black" stroke-width="0" x="499.606287" y="67.322833">T 13</text><line x1="531.49605" x2="531.49605" y1="70.86614" y2="425.19684" /><text fill="black" font-family="Verdana" font-size="12" stroke="black" stroke-width="0" x="535.039357" y="67.322833">W 14</text><line x1="566.92912" x2="566.92912" y1="70.86614" y2="425.19684" /><text fill="black" font-family="Verdana" font-size="12" stroke="black" stroke-width="0" x="570.472427" y="67.322833">T 15</text><line x1="602.36219" x2="602.36219" y1="70.86614" y2="425.19684" /><text fill="black" font-family="Verdana" font-size="12" stroke="black" stroke-width="0" x="605.905497" y="67.322833">F 16</text><line x1="637.79526" x2="637.79526" y1="70.86614" y2="425.19684" /><rect fill="gray" height="354.3307" opacity="0.7" stroke="lightgray" stroke-width="1" width="35.43307" x="637.79526" y="70.86614" /><text fill="black" font-family="Verdana" font-size="12" stroke="black" stroke-width="0" x="641.338567" y="67.322833">S 17</text><line x1="673.22833" x2="673.22833" y1="70.86614" y2="425.19684" /><rect fill="gray" height="354.3307" opacity="0.7" stroke="lightgray" stroke-width="1" width="35.43307" x="673.22833" y="70.86614" /><text fill="black" font-family="Verdana" font-size="12" stroke="black" stroke-width="0" x="676.7716369999999" y="67.322833">S 18</text><line x1="708.6614" x2="708.6614" y1="70.86614" y2="425.19684" /><text fill="black" font-family="Verdana" font-size="12" stroke="black" stroke-width="0" x="712.204707" y="67.322833">M 19</text><text fill="black" font-family="Verdana" font-size="16" font-weight="bold" stroke="black" stroke-width="0" x="712.204707" y="53.149605">12</text><line x1="744.09447" x2="744.09447" y1="70.86614" y2="425.19684" /><text fill="black" font-family="Verdana" font-size="12" stroke="black" stroke-width="0" x="747.637777" y="67.322833">T 20</text><line x1="779.52754" x2="779.52754" y1="70.86614" y2="425.19684" /><text fill="black" font-family="Verdana" font-size="12" stroke="black" stroke-width="0" x="783.070847" y="67.322833">W 21</text><line x1="814.96061" x2="814.96061" y1="70.86614" y2="425.19684" /><text fill="black" font-family="Verdana" font-size="12" stroke="black" stroke-width="0" x="818.503917" y="67.322833">T 22</text><line x1="850.39368" x2="850.39368" y1="70.86614" y2="425.19684" /><text fill="black" font-family="Verdana" font-size="12" stroke="black" stroke-width="0" x="853.936987" y="67.322833">F 23</text><line x1="885.8267500000001" x2="885.8267500000001" y1="70.86614" y2="425.19684" /><rect fill="gray" height="354.3307" opacity="0.7" stroke="lightgray" stroke-width="1" width="35.43307" x="885.8267500000001" y="70.86614" /><text fill="black" font-family="Verdana" font-size="12" stroke="black" stroke-width="0" x="889.370057" y="67.322833">S 24</text><line x1="921.25982" x2="921.25982" y1="70.86614" y2="425.19684" /><rect fill="gray" height="354.3307" opacity="0.7" stroke="lightgray" stroke-width="1" width="35.43307" x="921.25982" y="70.86614" /><text fill="black" font-family="Verdana" font-size="12" stroke="black" stroke-width="0" x="924.803127" y="67.322833">S 25</text><line x1="956.69289" x2="956.69289" y1="70.86614" y2="425.19684" /><text fill="black" font-family="Verdana" font-size="12" stroke="black" stroke-width="0" x="960.236197" y="67.322833">M 26</text><text fill="black" font-family="Verdana" font-size="16" font-weight="bold" stroke="black" stroke-width="0" x="960.236197" y="53.149605">13</text><line x1="992.1259600000001" x2="992.1259600000001" y1="70.86614" y2="425.19684" /><text fill="black" font-family="Verdana" font-size="12" stroke="black" stroke-width="0" x="995.669267" y="67.322833">T 27</text><line x1="1027.5590300000001" x2="1027.5590300000001" y1="70.86614" y2="425.19684" /><text fill="black" font-family="Verdana" font-size="12" stroke="black" stroke-width="0" x="1031.102337" y="67.322833">W 28</text><line x1="1062.9921" x2="1062.9921" y1="70.86614" y2="425.19684" /><text fill="black" font-family="Verdana" font-size="12" stroke="black" stroke-width="0" x="1066.535407" y="67.322833">T 29</text><line x1="1098.42517" x2="1098.42517" y1="70.86614" y2="425.19684" /><text fill="black" font-family="Verdana" font-size="12" stroke="black" stroke-width="0" x="1101.968477" y="67.322833">F 30</text><line x1="1133.85824" x2="1133.85824" y1="70.86614" y2="425.19684" /><rect fill="gray" height="354.3307" opacity="0.7" stroke="lightgray" stroke-width="1" width="35.43307" x="1133.85824" y="70.86614" /><text fill="black" font-family="Verdana" font-size="12" stroke="black" stroke-width="0" x="1137.401547" y="67.322833">S 31</text><line x1="1169.29131" x2="1169.29131" y1="70.86614" y2="425.19684" /><rect fill="gray" height="354.3307" opacity="0.7" stroke="lightgray" stroke-width="1" width="35.43307" x="1169.29131" y="70.86614" /><text fill="black" font-family="Verdana" font-size="12" stroke="black" stroke-width="0" x="1172.834617" y="67.322833">S 01</text><text fill="#800000" font-family="Verdana" font-size="18" font-weight="bold" stroke="#800000" stroke-width="0" x="1172.834617" y="35.43307">April</text><line x1="1204.72438" x2="1204.72438" y1="70.86614" y2="425.19684" /><text fill="black" font-family="Verdana" font-size="12" stroke="black" stroke-width="0" x="1208.267687" y="67.322833">M 02</text><text fill="black" font-family="Verdana" font-size="16" font-weight="bold" stroke="black" stroke-width="0" x="1208.267687" y="53.149605">14</text><line x1="1240.15745" x2="1240.15745" y1="70.86614" y2="425.19684" /></g><g id="hlines" stroke="lightgray"><line x1="0.0" x2="1240.15745" y1="70.86614" y2="70.86614" /><line x1="0.0" x2="1240.15745" y1="106.29921" y2="106.29921" /><line x1="0.0" x2="1240.15745" y1="141.73228" y2="141.73228" /><line x1="0.0" x2="1240.15745" y1="177.16535" y2="177.16535" /><line x1="0.0" x2="1240.15745" y1="212.59842" y2="212.59842" /><line x1="0.0" x2="1240.15745" y1="248.03149000000002" y2="248.03149000000002" /><line x1="0.0" x2="1240.15745" y1="283.46456" y2="283.46456" /><line x1="0.0" x2="1240.15745" y1="318.89763" y2="318.89763" /><line x1="0.0" x2="1240.15745" y1="354.3307" y2="354.3307" /><line x1="0.0" x2="1240.15745" y1="389.76377" y2="389.76377" /><line x1="0.0" x2="1240.15745" y1="425.19684" y2="425.19684" /></g><line stroke="black" x1="0.0" x2="1240.15745" y1="70.86614" y2="70.86614" /><line stroke="black" x1="0.0" x2="1240.15745" y1="425.19684" y2="425.19684" /></g><g><g><text fill="black" font-family="Verdana" font-size="18" stroke="black" stroke-width="1" x="10.629921" y="95.669289">SampleProject</text><rect fill="purple" height="333.07085800000004" opacity="0.5" stroke="lightgray" stroke-width="0" width="7.086614000000001" x="2.8346456" y="88.582675" /><g><g id="a"><rect fill="#FFFF90" height="28.346456" opacity="0.85" stroke="#FFFF90" stroke-width="2" width="347.244086" x="3.543307" y="109.842517" /><rect fill="#909090" height="10.629921" opacity="0.2" stroke="#FFFF90" stroke-width="1" width="347.244086" x="3.543307" y="127.559052" /><rect fill="#F08000" height="10.629921" opacity="0.35" stroke="#FFFF90" stroke-width="1" width="173.622043" x="3.543307" y="127.559052" /><text fill="black" font-family="Verdana" font-size="15" stroke="black" stroke-width="1" x="7.086614" y="124.015745">a</text></g><g id="b"><rect fill="#FFFF90" height="28.346456" opacity="0.85" stroke="#FFFF90" stroke-width="2" width="488.976366" x="3.543307" y="145.275587" /><rect fill="#909090" height="10.629921" opacity="0.2" stroke="#FFFF90" stroke-width="1" width="488.976366" x="3.543307" y="162.992122" /><text fill="black" font-family="Verdana" font-size="15" stroke="black" stroke-width="1" x="7.086614" y="159.448815">b</text></g><g id="c"><rect fill="#FFFF90" height="28.346456" opacity="0.85" stroke="#FFFF90" stroke-width="2" width="347.244086" x="499.606287" y="180.708657" /><rect fill="#909090" height="10.629921" opacity="0.2" stroke="#FFFF90" stroke-width="1" width="347.244086" x="499.606287" y="198.425192" /><rect fill="#0000FF" height="14.173228" opacity="0.35" stroke="#FFFF90" stroke-width="1" width="17.716535" x="499.606287" y="180.708657" /><text fill="black" font-family="Verdana" font-size="15" stroke="black" stroke-width="1" x="503.149594" y="194.881885">c</text></g><g id="d"><rect fill="#FFFF90" height="28.346456" opacity="0.85" stroke="#FFFF90" stroke-width="2" width="453.543296" x="357.874007" y="216.141727" /><rect fill="#909090" height="10.629921" opacity="0.2" stroke="#FFFF90" stroke-width="1" width="453.543296" x="357.874007" y="233.858262" /><rect fill="#0000FF" height="14.173228" opacity="0.35" stroke="#FFFF90" stroke-width="1" width="17.716535" x="357.874007" y="216.141727" /><text fill="black" font-family="Verdana" font-size="15" stroke="black" stroke-width="1" x="361.417314" y="230.314955">d</text></g><g id="e"><rect fill="#FFFF90" height="28.346456" opacity="0.85" stroke="#FFFF90" stroke-width="2" width="240.944876" x="499.606287" y="251.574797" /><rect fill="#909090" height="10.629921" opacity="0.2" stroke="#FFFF90" stroke-width="1" width="240.944876" x="499.606287" y="269.291332" /><rect fill="#0000FF" height="14.173228" opacity="0.35" stroke="#FFFF90" stroke-width="1" width="17.716535" x="499.606287" y="251.574797" /><text fill="black" font-family="Verdana" font-size="15" stroke="black" stroke-width="1" x="503.149594" y="265.748025">e</text></g><g id="f"><rect fill="#FFFF90" height="28.346456" opacity="0.85" stroke="#FFFF90" stroke-width="2" width="170.078736" x="853.936987" y="287.007867" /><rect fill="#909090" height="10.629921" opacity="0.2" stroke="#FFFF90" stroke-width="1" width="170.078736" x="853.936987" y="304.724402" /><rect fill="#0000FF" height="14.173228" opacity="0.35" stroke="#FFFF90" stroke-width="1" width="17.716535" x="853.936987" y="287.007867" /><text fill="black" font-family="Verdana" font-size="15" stroke="black" stroke-width="1" x="857.480294" y="301.18109499999997">f</text></g><g id="g"><rect fill="#FFFF90" height="28.346456" opacity="0.85" stroke="#FFFF90" stroke-width="2" width="63.779526" x="818.503917" y="322.440937" /><rect fill="#909090" height="10.629921" opacity="0.2" stroke="#FFFF90" stroke-width="1" width="63.779526" x="818.503917" y="340.157472" /><rect fill="#0000FF" height="14.173228" opacity="0.35" stroke="#FFFF90" stroke-width="1" width="17.716535" x="818.503917" y="322.440937" /><text fill="black" font-family="Verdana" font-size="15" stroke="black" stroke-width="1" x="822.047224" y="336.614165">g</text></g><g id="h"><rect fill="#FFFF90" height="28.346456" opacity="0.85" stroke="#FFFF90" stroke-width="2" width="205.511806" x="1031.102337" y="357.874007" /><rect fill="#909090" height="10.629921" opacity="0.2" stroke="#FFFF90" stroke-width="1" width="205.511806" x="1031.102337" y="375.59054199999997" /><rect fill="#0000FF" height="14.173228" opacity="0.35" stroke="#FFFF90" stroke-width="1" width="17.716535" x="1031.102337" y="357.874007" /><text fill="black" font-family="Verdana" font-size="15" stroke="black" stroke-width="1" x="1034.645644" y="372.047235">h</text></g><g id="i"><rect fill="#FFFF90" height="28.346456" opacity="0.85" stroke="#FFFF90" stroke-width="2" width="99.212596" x="1031.102337" y="393.307077" /><rect fill="#909090" height="10.629921" opacity="0.2" stroke="#FFFF90" stroke-width="1" width="99.212596" x="1031.102337" y="411.023612" /><rect fill="#0000FF" height="14.173228" opacity="0.35" stroke="#FFFF90" stroke-width="1" width="17.716535" x="1031.102337" y="393.307077" /><text fill="black" font-family="Verdana" font-size="15" stroke="black" stroke-width="1" x="1034.645644" y="407.480305">i</text></g></g></g><g><g /><g /><g><line stroke="black" stroke-dasharray="5,3" x1="347.244086" x2="496.06298" y1="124.015745" y2="124.015745" /><marker id="id13" markerHeight="10" markerWidth="10" refX="5" refY="5"><circle cx="5" cy="5" fill="#000000" opacity="0.5" r="5" stroke-width="0" /></marker><line marker-end="url(#id13)" stroke="black" stroke-dasharray="5,3" x1="496.06298" x2="496.06298" y1="124.015745" y2="194.881885" /><line stroke="black" stroke-dasharray="5,3" x1="488.976366" x2="496.06298" y1="159.448815" y2="159.448815" /><marker id="id14" markerHeight="10" markerWidth="10" refX="5" refY="5"><circle cx="5" cy="5" fill="#000000" opacity="0.5" r="5" stroke-width="0" /></marker><line marker-end="url(#id14)" stroke="black" stroke-dasharray="5,3" x1="496.06298" x2="496.06298" y1="159.448815" y2="194.881885" /></g><g><line stroke="black" stroke-dasharray="5,3" x1="347.244086" x2="354.3307" y1="124.015745" y2="124.015745" /><marker id="id15" markerHeight="10" markerWidth="10" refX="5" refY="5"><circle cx="5" cy="5" fill="#000000" opacity="0.5" r="5" stroke-width="0" /></marker><line marker-end="url(#id15)" stroke="black" stroke-dasharray="5,3" x1="354.3307" x2="354.3307" y1="124.015745" y2="230.314955" /></g><g><line stroke="black" stroke-dasharray="5,3" x1="488.976366" x2="496.06298" y1="159.448815" y2="159.448815" /><marker id="id16" markerHeight="10" markerWidth="10" refX="5" refY="5"><circle cx="5" cy="5" fill="#000000" opacity="0.5" r="5" stroke-width="0" /></marker><line marker-end="url(#id16)" stroke="black" stroke-dasharray="5,3" x1="496.06298" x2="496.06298" y1="159.448815" y2="265.748025" /></g><g><line stroke="black" stroke-dasharray="5,3" x1="843.307066" x2="850.39368" y1="194.881885" y2="194.881885" /><marker id="id17" markerHeight="10" markerWidth="10" refX="5" refY="5"><circle cx="5" cy="5" fill="#000000" opacity="0.5" r="5" stroke-width="0" /></marker><line marker-end="url(#id17)" stroke="black" stroke-dasharray="5,3" x1="850.39368" x2="850.39368" y1="194.881885" y2="301.18109499999997" /><line stroke="black" stroke-dasharray="5,3" x1="807.873996" x2="850.39368" y1="230.314955" y2="230.314955" /><marker id="id18" markerHeight="10" markerWidth="10" refX="5" refY="5"><circle cx="5" cy="5" fill="#000000" opacity="0.5" r="5" stroke-width="0" /></marker><line marker-end="url(#id18)" stroke="black" stroke-dasharray="5,3" x1="850.39368" x2="850.39368" y1="230.314955" y2="301.18109499999997" /></g><g><line stroke="black" stroke-dasharray="5,3" x1="737.007856" x2="814.96061" y1="265.748025" y2="265.748025" /><marker id="id19" markerHeight="10" markerWidth="10" refX="5" refY="5"><circle cx="5" cy="5" fill="#000000" opacity="0.5" r="5" stroke-width="0" /></marker><line marker-end="url(#id19)" stroke="black" stroke-dasharray="5,3" x1="814.96061" x2="814.96061" y1="265.748025" y2="336.614165" /><line stroke="black" stroke-dasharray="5,3" x1="807.873996" x2="814.96061" y1="230.314955" y2="230.314955" /><marker id="id20" markerHeight="10" markerWidth="10" refX="5" refY="5"><circle cx="5" cy="5" fill="#000000" opacity="0.5" r="5" stroke-width="0" /></marker><line marker-end="url(#id20)" stroke="black" stroke-dasharray="5,3" x1="814.96061" x2="814.96061" y1="230.314955" y2="336.614165" /></g><g><line stroke="black" stroke-dasharray="5,3" x1="1020.472416" x2="1027.55903" y1="301.18109499999997" y2="301.18109499999997" /><marker id="id21" markerHeight="10" markerWidth="10" refX="5" refY="5"><circle cx="5" cy="5" fill="#000000" opacity="0.5" r="5" stroke-width="0" /></marker><line marker-end="url(#id21)" stroke="black" stroke-dasharray="5,3" x1="1027.55903" x2="1027.55903" y1="301.18109499999997" y2="372.047235" /><line stroke="black" stroke-dasharray="5,3" x1="878.740136" x2="1027.55903" y1="336.614165" y2="336.614165" /><marker id="id22" markerHeight="10" markerWidth="10" refX="5" refY="5"><circle cx="5" cy="5" fill="#000000" opacity="0.5" r="5" stroke-width="0" /></marker><line marker-end="url(#id22)" stroke="black" stroke-dasharray="5,3" x1="1027.55903" x2="1027.55903" y1="336.614165" y2="372.047235" /></g><g><line stroke="black" stroke-dasharray="5,3" x1="737.007856" x2="1027.55903" y1="265.748025" y2="265.748025" /><marker id="id23" markerHeight="10" markerWidth="10" refX="5" refY="5"><circle cx="5" cy="5" fill="#000000" opacity="0.5" r="5" stroke-width="0" /></marker><line marker-end="url(#id23)" stroke="black" stroke-dasharray="5,3" x1="1027.55903" x2="1027.55903" y1="265.748025" y2="407.480305" /><line stroke="black" stroke-dasharray="5,3" x1="1020.472416" x2="1027.55903" y1="301.18109499999997" y2="301.18109499999997" /><marker id="id24" markerHeight="10" markerWidth="10" refX="5" refY="5"><circle cx="5" cy="5" fill="#000000" opacity="0.5" r="5" stroke-width="0" /></marker><line marker-end="url(#id24)" stroke="black" stroke-dasharray="5,3" x1="1027.55903" x2="1027.55903" y1="301.18109499999997" y2="407.480305" /></g></g></g></svg>