<?xml version="1.0" encoding="utf-8" ?>
<svg baseProfile="full" height="389.76377" version="1.1" width="1027.5590300000001" xmlns="http://www.w3.org/2000/svg" xmlns:ev="http://www.w3.org/2001/xml-events" xmlns:xlink="http://www.w3.org/1999/xlink"><defs /><rect fill="white" height="389.76377" opacity="1" stroke-width="0" width="1027.5590300000001" x="0.0" y="0.0" /><g><g id="vlines" stroke="lightgray"><line x1="0.0" x2="0.0" y1="70.86614" y2="354.3307" /><text fill="black" font-family="Verdana" font-size="12" stroke="black" stroke-width="0" x="3.543307" y="67.322833">M 12</text><text fill="black" font-family="Verdana" font-size="16" font-weight="bold" stroke="black" stroke-width="0" x="3.543307" y="53.149605">07</text><line x1="35.43307" x2="35.43307" y1="70.86614" y2="354.3307" /><text fill="black" font-family="Verdana" font-size="12" stroke="black" stroke-width="0" x="38.976377" y="67.322833">T 13</text><line x1="70.86614" x2="70.86614" y1="70.86614" y2="354.3307" /><text fill="black" font-family="Verdana" font-size="12" stroke="black" stroke-width="0" x="74.409447" y="67.322833">W 14</text><line x1="106.29921" x2="106.29921" y1="70.86614" y2="354.3307" /><text fill="black" font-family="Verdana" font-size="12" stroke="black" stroke-width="0" x="109.842517" y="67.322833">T 15</text><line x1="141.73228" x2="141.73228" y1="70.86614" y2="354.3307" /><text fill="black" font-family="Verdana" font-size="12" stroke="black" stroke-width="0" x="145.275587" y="67.322833">F 16</text><line x1="177.16535" x2="177.16535" y1="70.86614" y2="354.3307" /><rect fill="gray" height="283.46456" opacity="0.7" stroke="lightgray" stroke-width="1" width="35.43307" x="177.16535" y="70.86614" /><text fill="black" font-family="Verdana" font-size="12" stroke="black" stroke-width="0" x="180.708657" y="67.322833">S 17</text><line x1="212.59842" x2="212.59842" y1="70.86614" y2="354.3307" /><rect fill="gray" height="283.46456" opacity="0.7" stroke="lightgray" stroke-width="1" width="35.43307" x="212.59842" y="70.86614" /><text fill="black" font-family="Verdana" font-size="12" stroke="black" stroke-width="0" x="216.141727" y="67.322833">S 18</text><line x1="248.03149000000002" x2="248.03149000000002" y1="70.86614" y2="354.3307" /><text fill="black" font-family="Verdana" font-size="12" stroke="black" stroke-width="0" x="251.574797" y="67.322833">M 19</text><text fill="black" font-family="Verdana" font-size="16" font-weight="bold" stroke="black" stroke-width="0" x="251.574797" y="53.149605">08</text><line x1="283.46456" x2="283.46456" y1="70.86614" y2="354.3307" /><text fill="black" font-family="Verdana" font-size="12" stroke="black" stroke-width="0" x="287.007867" y="67.322833">T 20</text><line x1="318.89763" x2="318.89763" y1="70.86614" y2="354.3307" /><text fill="black" font-family="Verdana" font-size="12" stroke="black" stroke-width="0" x="322.440937" y="67.322833">W 21</text><line x1="354.3307" x2="354.3307" y1="70.86614" y2="354.3307" /><text fill="black" font-family="Verdana" font-size="12" stroke="black" stroke-width="0" x="357.874007" y="67.322833">T 22</text><line x1="389.76377" x2="389.76377" y1="70.86614" y2="354.3307" /><text fill="black" font-family="Verdana" font-size="12" stroke="black" stroke-width="0" x="393.307077" y="67.322833">F 23</text><line x1="425.19684" x2="425.19684" y1="70.86614" y2="354.3307" /><rect fill="gray" height="283.46456" opacity="0.7" stroke="lightgray" stroke-width="1" width="35.43307" x="425.19684" y="70.86614" /><text fill="black" font-family="Verdana" font-size="12" stroke="black" stroke-width="0" x="428.740147" y="67.322833">S 24</text><line x1="460.62991" x2="460.62991" y1="70.86614" y2="354.3307" /><rect fill="gray" height="283.46456" opacity="0.7" stroke="lightgray" stroke-width="1" width="35.43307" x="460.62991" y="70.86614" /><text fill="black" font-family="Verdana" font-size="12" stroke="black" stroke-width="0" x="464.173217" y="67.322833">S 25</text><line x1="496.06298000000004" x2="496.06298000000004" y1="70.86614" y2="354.3307" /><text fill="black" font-family="Verdana" font-size="12" stroke="black" stroke-width="0" x="499.606287" y="67.322833">M 26</text><text fill="black" font-family="Verdana" font-size="16" font-weight="bold" stroke="black" stroke-width="0" x="499.606287" y="53.149605">09</text><line x1="531.49605" x2="531.49605" y1="70.86614" y2="354.3307" /><text fill="black" font-family="Verdana" font-size="12" stroke="black" stroke-width="0" x="535.039357" y="67.322833">T 27</text><line x1="566.92912" x2="566.92912" y1="70.86614" y2="354.3307" /><text fill="black" font-family="Verdana" font-size="12" stroke="black" stroke-width="0" x="570.472427" y="67.322833">W 28</text><line x1="602.36219" x2="602.36219" y1="70.86614" y2="354.3307" /><text fill="black" font-family="Verdana" font-size="12" stroke="black" stroke-width="0" x="605.905497" y="67.322833">T 01</text><text fill="#800000" font-family="Verdana" font-size="18" font-weight="bold" stroke="#800000" stroke-width="0" x="605.905497" y="35.43307">March</text><line x1="637.79526" x2="637.79526" y1="70.86614" y2="354.3307" /><text fill="black" font-family="Verdana" font-size="12" stroke="black" stroke-width="0" x="641.338567" y="67.322833">F 02</text><line x1="673.22833" x2="673.22833" y1="70.86614" y2="354.3307" /><rect fill="gray" height="283.46456" opacity="0.7" stroke="lightgray" stroke-width="1" width="35.43307" x="673.22833" y="70.86614" /><text fill="black" font-family="Verdana" font-size="12" stroke="black" stroke-width="0" x="676.7716369999999" y="67.322833">S 03</text><line x1="708.6614" x2="708.6614" y1="70.86614" y2="354.3307" /><rect fill="gray" height="283.46456" opacity="0.7" stroke="lightgray" stroke-width="1" width="35.43307" x="708.6614" y="70.86614" /><text fill="black" font-family="Verdana" font-size="12" stroke="black" stroke-width="0" x="712.204707" y="67.322833">S 04</text><line x1="744.09447" x2="744.09447" y1="70.86614" y2="354.3307" /><text fill="black" font-family="Verdana" font-size="12" stroke="black" stroke-width="0" x="747.637777" y="67.322833">M 05</text><text fill="black" font-family="Verdana" font-size="16" font-weight="bold" stroke="black" stroke-width="0" x="747.637777" y="53.149605">10</text><line x1="779.52754" x2="779.52754" y1="70.86614" y2="354.3307" /><text fill="black" font-family="Verdana" font-size="12" stroke="black" stroke-width="0" x="783.070847" y="67.322833">T 06</text><line x1="814.96061" x2="814.96061" y1="70.86614" y2="354.3307" /><text fill="black" font-family="Verdana" font-size="12" stroke="black" stroke-width="0" x="818.503917" y="67.322833">W 07</text><line x1="850.39368" x2="850.39368" y1="70.86614" y2="354.3307" /><text fill="black" font-family="Verdana" font-size="12" stroke="black" stroke-width="0" x="853.936987" y="67.322833">T 08</text><line x1="885.8267500000001" x2="885.8267500000001" y1="70.86614" y2="354.3307" /><text fill="black" font-family="Verdana" font-size="12" stroke="black" stroke-width="0" x="889.370057" y="67.322833">F 09</text><line x1="921.25982" x2="921.25982" y1="70.86614" y2="354.3307" /><rect fill="gray" height="283.46456" opacity="0.7" stroke="lightgray" stroke-width="1" width="35.43307" x="921.25982" y="70.86614" /><text fill="black" font-family="Verdana" font-size="12" stroke="black" stroke-width="0" x="924.803127" y="67.322833">S 10</text><line x1="956.69289" x2="956.69289" y1="70.86614" y2="354.3307" /><rect fill="gray" height="283.46456" opacity="0.7" stroke="lightgray" stroke-width="1" width="35.43307" x="956.69289" y="70.86614" /><text fill="black" font-family="Verdana" font-size="12" stroke="black" stroke-width="0" x="960.236197" y="67.322833">S 11</text><line x1="992.1259600000001" x2="992.1259600000001" y1="70.86614" y2="354.3307" /><text fill="black" font-family="Verdana" font-size="12" stroke="black" stroke-width="0" x="995.669267" y="67.322833">M 12</text><text fill="black" font-family="Verdana" font-size="16" font-weight="bold" stroke="black" stroke-width="0" x="995.669267" y="53.149605">11</text><line x1="1027.5590300000001" x2="1027.5590300000001" y1="70.86614" y2="354.3307" /></g><g id="hlines" stroke="lightgray"><line x1="0.0" x2="1027.5590300000001" y1="70.86614" y2="70.86614" /><line x1="0.0" x2="1027.5590300000001" y1="106.29921" y2="106.29921" /><line x1="0.0" x2="1027.5590300000001" y1="141.73228" y2="141.73228" /><line x1="0.0" x2="1027.5590300000001" y1="177.16535" y2="177.16535" /><line x1="0.0" x2="1027.5590300000001" y1="212.59842" y2="212.59842" /><line x1="0.0" x2="1027.5590300000001" y1="248.03149000000002" y2="248.03149000000002" /><line x1="0.0" x2="1027.5590300000001" y1="283.46456" y2="283.46456" /><line x1="0.0" x2="1027.5590300000001" y1="318.89763" y2="318.89763" /><line x1="0.0" x2="1027.5590300000001" y1="354.3307" y2="354.3307" /></g><line stroke="black" x1="0.0" x2="1027.5590300000001" y1="70.86614" y2="70.86614" /><line stroke="black" x1="0.0" x2="1027.5590300000001" y1="354.3307" y2="354.3307" /></g><g><g><text fill="black" font-family="Verdana" font-size="18" stroke="black" stroke-width="0" x="10.629921" y="95.669289">SampleProject</text><rect fill="purple" height="262.204718" opacity="0.5" stroke="lightgray" stroke-width="0" width="7.086614000000001" x="2.8346456" y="88.582675" /><g><g id="task1"><rect fill="#FFFF90" height="28.346456" opacity="0.85" stroke="#FFFF90" stroke-width="2" width="170.078736" x="3.543307" y="109.842517" /><rect fill="#909090" height="10.629921" opacity="0.2" stroke="#FFFF90" stroke-width="1" width="170.078736" x="3.543307" y="127.559052" /><rect fill="#0000FF" height="14.173228" opacity="0.35" stroke="#FFFF90" stroke-width="1" width="17.716535" x="3.543307" y="109.842517" /><text fill="black" font-family="Verdana" font-size="15" stroke="black" stroke-width="0" x="7.086614" y="124.015745">task1</text></g><g id="task2"><rect fill="#FFFF90" height="28.346456" opacity="0.85" stroke="#FFFF90" stroke-width="2" width="99.212596" x="251.574797" y="145.275587" /><rect fill="#909090" height="10.629921" opacity="0.2" stroke="#FFFF90" stroke-width="1" width="99.212596" x="251.574797" y="162.992122" /><rect fill="#0000FF" height="14.173228" opacity="0.35" stroke="#FFFF90" stroke-width="1" width="17.716535" x="251.574797" y="145.275587" /><text fill="black" font-family="Verdana" font-size="15" stroke="black" stroke-width="0" x="255.118104" y="159.448815">task2</text></g><g id="task3"><rect fill="#FFFF90" height="28.346456" opacity="0.85" stroke="#FFFF90" stroke-width="2" width="134.645666" x="251.574797" y="180.708657" /><rect fill="#909090" height="10.629921" opacity="0.2" stroke="#FFFF90" stroke-width="1" width="134.645666" x="251.574797" y="198.425192" /><rect fill="#0000FF" height="14.173228" opacity="0.35" stroke="#FFFF90" stroke-width="1" width="17.716535" x="251.574797" y="180.708657" /><text fill="black" font-family="Verdana" font-size="15" stroke="black" stroke-width="0" x="255.118104" y="194.881885">task3</text></g><g id="task4"><rect fill="#FFFF90" height="28.346456" opacity="0.85" stroke="#FFFF90" stroke-width="2" width="276.377946" x="393.307077" y="216.141727" /><rect fill="#909090" height="10.629921" opacity="0.2" stroke="#FFFF90" stroke-width="1" width="276.377946" x="393.307077" y="233.858262" /><rect fill="#0000FF" height="14.173228" opacity="0.35" stroke="#FFFF90" stroke-width="1" width="17.716535" x="393.307077" y="216.141727" /><text fill="black" font-family="Verdana" font-size="15" stroke="black" stroke-width="0" x="396.850384" y="230.314955">task4</text></g><g id="task5"><rect fill="#FFFF90" height="28.346456" opacity="0.85" stroke="#FFFF90" stroke-width="2" width="205.511806" x="393.307077" y="251.574797" /><rect fill="#909090" height="10.629921" opacity="0.2" stroke="#FFFF90" stroke-width="1" width="205.511806" x="393.307077" y="269.291332" /><rect fill="#0000FF" height="14.173228" opacity="0.35" stroke="#FFFF90" stroke-width="1" width="17.716535" x="393.307077" y="251.574797" /><text fill="black" font-family="Verdana" font-size="15" stroke="black" stroke-width="0" x="396.850384" y="265.748025">task5</text></g><g id="task6"><rect fill="#FFFF90" height="28.346456" opacity="0.85" stroke="#FFFF90" stroke-width="2" width="28.346456" x="747.637777" y="287.007867" /><rect fill="#909090" height="10.629921" opacity="0.2" stroke="#FFFF90" stroke-width="1" width="28.346456" x="747.637777" y="304.724402" /><rect fill="#0000FF" height="14.173228" opacity="0.35" stroke="#FFFF90" stroke-width="1" width="17.716535" x="747.637777" y="287.007867" /><text fill="black" font-family="Verdana" font-size="15" stroke="black" stroke-width="0" x="751.1810839999999" y="301.18109499999997">task6</text></g><g id="task7"><rect fill="#FFFF90" height="28.346456" opacity="0.85" stroke="#FFFF90" stroke-width="2" width="240.944876" x="783.070847" y="322.440937" /><rect fill="#909090" height="10.629921" opacity="0.2" stroke="#FFFF90" stroke-width="1" width="240.944876" x="783.070847" y="340.157472" /><rect fill="#0000FF" height="14.173228" opacity="0.35" stroke="#FFFF90" stroke-width="1" width="17.716535" x="783.070847" y="322.440937" /><text fill="black" font-family="Verdana" font-size="15" stroke="black" stroke-width="0" x="786.614154" y="336.614165">task7</text></g></g></g><g><g><line stroke="black" stroke-dasharray="5,3" x1="170.078736" x2="248.03149" y1="124.015745" y2="124.015745" /><marker id="id1" markerHeight="10" markerWidth="10" refX="5" refY="5"><circle cx="5" cy="5" fill="#000000" opacity="0.5" r="5" stroke-width="0" /></marker><line marker-end="url(#id1)" stroke="black" stroke-dasharray="5,3" x1="248.03149" x2="248.03149" y1="124.015745" y2="159.448815" /></g><g><line stroke="black" stroke-dasharray="5,3" x1="170.078736" x2="248.03149" y1="124.015745" y2="124.015745" /><marker id="id2" markerHeight="10" markerWidth="10" refX="5" refY="5"><circle cx="5" cy="5" fill="#000000" opacity="0.5" r="5" stroke-width="0" /></marker><line marker-end="url(#id2)" stroke="black" stroke-dasharray="5,3" x1="248.03149" x2="248.03149" y1="124.015745" y2="194.881885" /></g><g><line stroke="black" stroke-dasharray="5,3" x1="382.677156" x2="389.76377" y1="194.881885" y2="194.881885" /><marker id="id3" markerHeight="10" markerWidth="10" refX="5" refY="5"><circle cx="5" cy="5" fill="#000000" opacity="0.5" r="5" stroke-width="0" /></marker><line marker-end="url(#id3)" stroke="black" stroke-dasharray="5,3" x1="389.76377" x2="389.76377" y1="194.881885" y2="230.314955" /></g><g><line stroke="black" stroke-dasharray="5,3" x1="347.244086" x2="389.76377" y1="159.448815" y2="159.448815" /><marker id="id4" markerHeight="10" markerWidth="10" refX="5" refY="5"><circle cx="5" cy="5" fill="#000000" opacity="0.5" r="5" stroke-width="0" /></marker><line marker-end="url(#id4)" stroke="black" stroke-dasharray="5,3" x1="389.76377" x2="389.76377" y1="159.448815" y2="265.748025" /><line stroke="black" stroke-dasharray="5,3" x1="382.677156" x2="389.76377" y1="194.881885" y2="194.881885" /><marker id="id5" markerHeight="10" markerWidth="10" refX="5" refY="5"><circle cx="5" cy="5" fill="#000000" opacity="0.5" r="5" stroke-width="0" /></marker><line marker-end="url(#id5)" stroke="black" stroke-dasharray="5,3" x1="389.76377" x2="389.76377" y1="194.881885" y2="265.748025" /></g><g><line stroke="black" stroke-dasharray="5,3" x1="666.141716" x2="744.09447" y1="230.314955" y2="230.314955" /><marker id="id6" markerHeight="10" markerWidth="10" refX="5" refY="5"><circle cx="5" cy="5" fill="#000000" opacity="0.5" r="5" stroke-width="0" /></marker><line marker-end="url(#id6)" stroke="black" stroke-dasharray="5,3" x1="744.09447" x2="744.09447" y1="230.314955" y2="301.18109499999997" /></g><g><line stroke="black" stroke-dasharray="5,3" x1="666.141716" x2="779.52754" y1="230.314955" y2="230.314955" /><marker id="id7" markerHeight="10" markerWidth="10" refX="5" refY="5"><circle cx="5" cy="5" fill="#000000" opacity="0.5" r="5" stroke-width="0" /></marker><line marker-end="url(#id7)" stroke="black" stroke-dasharray="5,3" x1="779.52754" x2="779.52754" y1="230.314955" y2="336.614165" /><line stroke="black" stroke-dasharray="5,3" x1="595.275576" x2="779.52754" y1="265.748025" y2="265.748025" /><marker id="id8" markerHeight="10" markerWidth="10" refX="5" refY="5"><circle cx="5" cy="5" fill="#000000" opacity="0.5" r="5" stroke-width="0" /></marker><line marker-end="url(#id8)" stroke="black" stroke-dasharray="5,3" x1="779.52754" x2="779.52754" y1="265.748025" y2="336.614165" /><line stroke="black" stroke-dasharray="5,3" x1="772.440926" x2="779.52754" y1="301.18109499999997" y2="301.18109499999997" /><marker id="id9" markerHeight="10" markerWidth="10" refX="5" refY="5"><circle cx="5" cy="5" fill="#000000" opacity="0.5" r="5" stroke-width="0" /></marker><line marker-end="url(#id9)" stroke="black" stroke-dasharray="5,3" x1="779.52754" x2="779.52754" y1="301.18109499999997" y2="336.614165" /></g></g></g></svg>